<svg version="1.2" xmlns="http://www.w3.org/2000/svg" viewBox="0 0 3508 2480" width="3508" height="2480">
	<style>
		.s0 { fill: #ffffff } 
		.s1 { fill: #000000 } 
	</style>
	<g id="Page 1">
		<g id="Group 1">
		</g>
		<g id="Group 3">
			<g id="Group 4">
				<path id="Object 5" fill-rule="evenodd" class="s0" d="m444.6 1408.38q-18.65-0.05-32.69-5.11-14.03-5.07-23.34-13.18-9.3-8.1-13.61-18.58-4.31-10.48-3.23-21.6 0.82-11.93 7.15-24.5 6.34-12.57 16.61-24.33 10.27-11.77 24.21-22.47 13.94-10.69 30.12-19.26 16.17-8.58 34.04-14.36 17.87-5.79 36.26-8.13 7.12-11.37 11.6-18.78 4.48-7.41 6.99-12.44 2.5-5.02 3.56-8.6 1.06-3.57 1.33-7.28 0.55-6.36 4.09-5.56 3.54 0.81 7.34 5.72 3.79 4.91 6.67 12.07 2.86 7.16 2.33 13.25-0.27 2.39-0.54 3.98-0.27 1.59-1.32 3.84-1.06 2.25-3.3 5.82-2.24 3.57-6.19 9.65 9.71 2.41 16 7.73 6.29 5.31 9.82 11.68 3.53 6.37 4.82 12.86 1.3 6.5 1.03 10.74-0.54 5.3-1.59 7.02-1.06 1.72-2.11 1.58-1.05-0.13-1.83-1.86-0.79-1.72-0.52-3.31 0.27-3.18-2.74-6.63-3.01-3.45-8.65-6.38-5.64-2.93-13.25-5.07-7.61-2.14-16.28-2.69-6.85 10.58-12.52 19.58-5.67 8.99-10.02 16.93-4.35 7.94-6.99 15.22-2.65 7.28-3.19 13.9-0.54 7.15-4.22 6.88-3.67-0.27-7.6-4.65-3.93-4.39-7.06-11.15-3.14-6.77-2.6-12.59 0.54-6.36 2.65-11.66 2.12-5.29 4.89-10.19 2.77-4.89 5.93-9.65 3.16-4.76 5.8-10.32-19.18 4.72-37.19 14.08-18.01 9.36-32.22 21.39-14.21 12.02-23.18 26.3-8.96 14.29-10.05 29.12-0.8 8.48 1.14 16.44 1.96 7.95 7.06 14.06 5.11 6.1 13.37 9.7 8.26 3.6 20.35 3.63 22.31 0.05 43.48-8.64 21.16-8.69 40.63-23.35 19.47-14.66 36.84-33.82 17.38-19.17 32.4-40.2 15.02-21.03 27.02-42.59 12-21.57 20.71-40.62 8.72-19.06 13.74-34.42 5.03-15.35 5.58-24.36 0.81-9.01-5.48-12.47-6.3-3.46-16.8-2.95-10.51 0.5-24.44 4.17-13.92 3.68-28.38 9.34-14.46 5.66-28.52 12.52-14.07 6.85-25.25 13.58-11.18 6.73-18.15 12.54-6.97 5.82-7.24 9.52-0.27 2.12 0.38 3.18 0.66 1.07 0.65 2.92-0.27 2.91-3.94 1.18-3.67-1.73-8-5.85-4.32-4.11-7.85-9.69-3.53-5.57-3.26-10.34 0.27-3.18 5.67-8.99 5.4-5.82 15-12.82 9.6-7 22.75-14.25 13.15-7.26 28.53-13.05 15.37-5.79 32.32-9.59 16.95-3.8 34.54-3.75 19.7 0.04 32.81 6.04 13.12 5.99 20.84 14.36 7.73 8.36 10.6 17.38 2.86 9.02 2.59 14.85-1.35 16.42-7.57 35.48-6.22 19.06-16.77 38.78-10.56 19.71-24.78 39.55-14.23 19.84-31.35 37.95-17.11 18.11-36.84 33.82-19.74 15.72-40.9 27.2-21.17 11.47-43.64 18.04-22.47 6.57-45.05 6.51zm295.93-206.21q-2.36-0.01-5.12-2-2.75-2-5.1-5.98-2.36-3.98-3.79-9.68-1.43-5.7-0.62-12.85 0.54-7.15 2.92-12.18 2.37-5.03 5.27-7.94 2.89-2.91 6.05-4.22 3.15-1.32 5.51-1.31 2.37 0 6.44 1.47 4.06 1.47 8 3.86 3.93 2.4 6.68 5.45 2.75 3.05 2.48 6.5-0.27 3.44-1.85 5.69-1.59 2.25-3.95 4.63-2.37 2.38-5.27 5.68-2.9 3.31-6.06 8.6-3.17 5.29-4.75 8.2-1.58 2.91-2.63 4.23-1.06 1.33-1.85 1.59-0.78 0.26-2.36 0.26zm26.41 45.37q1.58-2.11 3.42-2.64 1.84-0.52 3.29 0.28 1.44 0.79 1.56 2.91 0.13 2.12-1.98 5.3-1.32 2.12-6.72 9.39-5.4 7.27-13.04 16.92-7.64 9.66-16.86 20.5-9.21 10.84-18.43 19.83-9.21 8.98-17.63 14.79-8.41 5.81-14.45 5.79-7.62-0.01-12.34-3.6-4.71-3.59-7.33-9.03-2.61-5.44-3.38-11.8-0.77-6.36-0.24-11.66 0.55-7.15 5.29-16.55 4.75-9.39 11.08-20.24 6.33-10.85 13.06-22.62 6.72-11.78 11.48-23.69 0.79-1.85 1.06-3.97 0.27-2.12 0.8-3.84 0.52-1.72 1.58-2.78 1.05-1.06 3.41-1.05 2.37 0 5.51 2 3.15 1.99 5.77 5.84 2.61 3.85 4.18 9.68 1.56 5.84 0.75 13.52-0.54 5.3-5.02 13.63-4.49 8.34-10.42 17.86-5.93 9.53-11.99 19.19-6.07 9.65-9.5 17.59-3.43 7.94-3.05 12.85 0.38 4.9 7.21 4.92 2.89 0 11.44-7.4 8.55-7.39 19.22-18.89 10.66-11.5 22.12-25.52 11.45-14.01 20.15-27.51zm56.56-38.28q5.77 0.02 10.49 4.4 4.72 4.38 7.46 9.69 2.75 5.31 3.39 9.68 0.65 4.37-1.45 4.37-7.62-0.02-18.01 6.58c-6.92 4.44-13.94 9.99-21.05 16.73q-10.66 10.03-20.53 21.72c-6.59 7.76-12.03 15.03-16.34 21.73-4.3 6.75-7.16 12.3-8.57 16.76q-2.12 6.62 2.61 6.63 1.57 0 6.7-4.49 5.14-4.49 11.85-11.36 6.71-6.87 13.95-15.07 7.25-8.2 13.17-15.34 5.93-7.13 9.49-12.43 3.55-5.29 3.03-6.61-1.04-1.86 1.71-1.85 2.76 0 6.56 2.13 3.81 2.13 7.08 6.64 3.27 4.52 3.25 11.67-0.02 7.16-3.71 15.49-3.7 8.34-7.65 15.35-3.96 7.02-6.07 11.65-2.12 4.63 1.04 4.64 3.15 0 11.31-7.39 8.16-7.4 18.42-18.9 10.27-11.51 21.34-25.39 11.06-13.88 19.76-27.11 1.58-2.12 3.42-2.77 1.84-0.66 3.28 0.14 1.44 0.8 1.57 2.91 0.13 2.12-1.98 5.3-1.58 2.11-6.72 9.39-5.14 7.27-12.52 16.93-7.37 9.65-16.33 20.36-8.95 10.71-17.9 19.7-8.95 8.92-17.11 14.66-8.15 5.68-14.19 5.66-3.94-0.01-7.87-2.67-3.94-2.66-6.82-6.37-2.88-3.72-4.71-7.7-1.83-3.98-1.82-6.36 0.01-2.39 0.67-5.17 0.66-2.78 1.46-5.16 1.05-2.91 2.38-5.83-9.49 10.85-17.91 19.57-7.11 7.4-14.21 13.48-7.11 6.07-10.78 6.06-3.68 0-7.88-2.27-4.19-2.26-7.99-6.25-3.8-3.98-6.28-9.68-2.48-5.7-2.46-12.86 0.01-7.68 4.9-18.14 4.88-10.45 12.79-21.69 7.9-11.25 18.04-22.22 10.14-10.97 20.53-19.69 10.4-8.72 20.12-13.99 9.73-5.28 17.09-5.26zm175.62 132.66q-7.61-0.02-12.58-8.38-4.97-8.36-4.94-23.46 0.02-4.24 1.87-9.8 1.85-5.56 4.88-11.78 3.04-6.22 6.99-12.7 3.96-6.48 8.17-12.83 9.5-14.55 21.88-30.69-1.58 0-9.08 5.68-7.5 5.68-17.36 14-9.87 8.32-19.74 18.1-9.87 9.78-16.2 17.98-4.21 6.35-8.96 14.55-4.75 8.2-8.84 15.74-4.09 7.55-6.73 13.63-2.64 6.09-2.64 7.95-0.01 2.65-2.37 1.32-2.36-1.33-5.37-5.58-3.01-4.25-5.35-10.61-2.35-6.37-2.34-14.05 0.02-4.24 1.87-9.8 1.85-5.56 4.88-11.91 3.04-6.36 7-12.97 3.95-6.62 8.17-12.96 9.75-14.82 22.13-31.22-2.1 0-9.6 7.13-7.5 7.14-17.51 17.98-10 10.84-21.06 23.93-11.06 13.08-20.42 24.99-9.35 11.9-15.41 21.16-6.06 9.25-6.07 12.44-0.01 2.64-2.76 1.97-2.76-0.66-6.17-4.25-3.4-3.58-6.14-9.55-2.74-5.97-2.73-13.92 0.02-5.3 3.98-13.51 3.96-8.2 9.76-17.59 5.8-9.39 12.78-19.71 6.98-10.32 12.79-20.24 5.8-9.92 9.76-18.79 3.96-8.87 3.97-15.49 0.01-3.44 2.9-3.3 2.89 0.13 6.43 3.59 3.53 3.45 6.54 10.35 3 6.9 2.98 16.96-0.02 4.77-1.87 9.94-1.85 5.16-3.96 9.39-2.64 4.76-5.54 9.53 15.27-15.6 27.91-28.02 5.52-5.29 10.92-10.31 5.4-5.02 10.13-8.98 4.74-3.96 8.29-6.47 3.55-2.51 5.13-2.51 3.41 0.01 6.56 2.27 3.14 2.26 5.5 6.11 2.35 3.85 3.65 8.62 1.3 4.77 1.29 9.54 0 2.65-1.99 6.89-1.97 4.23-5.14 9.79 4.74-4.76 12.37-12.16 7.64-7.4 15.27-14.27 7.63-6.87 14.21-11.76 6.58-4.88 9.2-4.88 3.42 0.01 6.04 2.27 2.62 2.26 4.58 6.11c1.3 2.56 2.3 5.48 3 8.66q1.04 4.77 1.02 9.54c0 2.12-1.54 6-4.62 11.56q-4.62 8.32-11.47 18.96c-4.57 7.06-9.36 14.42-14.37 22-5 7.59-9.44 14.6-13.31 20.95-3.86 6.35-6.68 11.59-8.44 15.65q-2.64 6.09 0.25 6.1 4.46 0.01 13.94-7.92 9.47-7.92 20.92-20.22 11.46-12.29 23.31-26.83 11.85-14.55 20.55-27.77 1.32-2.12 3.29-2.78 1.97-0.65 3.28 0.14 1.31 0.8 1.44 2.92 0.12 2.12-1.99 5.3-1.31 2.11-6.45 9.52-5.14 7.41-12.65 17.19-7.51 9.79-16.59 20.76-9.09 10.97-18.43 20.09-9.35 9.12-18.42 14.93-9.08 5.81-16.17 5.79zm149.24-31.43q-2.89-0.01-5.38-1.07-2.49-1.07-4.07-2.4-1.57 2.12-2.89 3.44-0.53 0.26-1.06 1.06-0.52 0.53-1.18 1.32-0.66 0.79-1.45 1.85-9.48 10.05-20.53 17.7-11.04 7.66-22.08 9.22-0.26 0.27-0.79 0.27-1.05-0.01-1.31 0.26l-2.63-0.01q-3.93-0.01-8.79-1.35-4.85-1.33-9.18-4.92-4.32-3.59-7.2-10.09-2.87-6.5-2.84-17.1 0.03-11.92 3.86-23.83 3.84-11.92 10.3-22.77 6.46-10.84 14.75-20.36 8.3-9.52 17.12-16.52 8.81-7 17.49-10.95 8.67-3.96 15.76-3.94 11.03 0.03 18.89 6.27 7.87 6.25 12.83 14.74 0.79 1.33-1.58 3.44-2.37 2.12-11.3 2.09-10.76-0.02-21.55 6.97-10.78 7-20 17.44-9.22 10.44-16.2 22.62-6.99 12.17-10.69 22.63-3.71 10.45-3.33 17.48 0.38 7.02 6.15 7.03 5.78 0.02 13.41-4.73 7.63-4.75 14.47-10.83 8.16-6.87 16.32-15.6-0.78-1.85-1.3-4.5-0.52-2.12-0.78-5.04-0.25-2.92-0.24-6.62 0.01-7.95 4.1-13.51 4.08-5.55 8.95-7.26 4.86-1.71 8.92 1.08 4.06 2.79 4.05 11.01-0.01 3.71-3.44 9.79-3.43 6.09-9.76 14.55 0.53 0.53 2.23 1.2 1.71 0.66 2.76 0.67 4.73 0.01 9.46-3.56 4.74-3.56 10.27-10.3 5.53-6.75 11.99-16.4 6.45-9.66 14.36-21.83 1.32-2.11 3.29-2.77 1.97-0.66 3.28 0.14 1.31 0.8 1.44 2.92 0.13 2.12-1.98 5.29-1.32 2.12-4.09 7.01-2.77 4.9-6.85 10.98-4.09 6.09-9.09 12.83-5.01 6.75-10.41 12.3-5.39 5.55-11.18 9.11-5.79 3.56-11.3 3.55zm92.62 32.03q-7.61-0.02-12.71-9.44-5.1-9.42-5.06-24.52 0.01-4.25 1.73-9.67 1.72-5.43 4.49-11.39 2.77-5.95 6.2-12.3 3.43-6.35 7.12-12.44 8.7-14.02 19.5-29.36-2.1-0.01-9.2 6.6-7.11 6.61-16.45 16.65-9.35 10.05-19.62 22.21-10.28 12.17-18.84 23.41-8.56 11.24-14.23 19.83c-3.77 5.78-5.66 9.71-5.67 11.87q-0.02 7.61-2.78 8.12-2.76 0.51-6.16-3.28-3.4-3.79-6.14-10.88-2.75-7.09-2.73-15.03 0.02-5.29 3.84-13.24 3.83-7.93 9.63-17.19 5.8-9.26 12.65-19.32 6.85-10.05 12.66-19.57 5.8-9.53 9.62-18.26 3.83-8.74 3.85-15.36 0.01-3.45 3.03-3.31 3.02 0.14 6.55 3.6 3.54 3.45 6.54 10.35 3.01 6.89 2.98 16.7-0.01 5.03-1.46 8.87-1.46 3.84-3.04 6.75-2.11 3.18-4.48 6.08 13.43-13.74 25.01-24.31 5-4.49 9.87-8.99 4.87-4.49 9.21-7.92 4.34-3.44 7.76-5.55 3.42-2.11 5-2.11 3.41 0.01 6.16 2.27 2.75 2.26 4.58 6.11 1.83 3.84 2.87 8.62 1.04 4.77 1.03 9.54-0.01 3.18-4.49 11.25-4.49 8.07-11.08 18.39-6.59 10.31-13.84 21.29-7.25 10.98-12.78 20.11-5.54 9.13-8.05 15.08-2.51 5.96 0.64 5.97 5.78 0.01 15.38-7.65 9.61-7.66 20.53-19.42 10.93-11.77 22-26.05 11.06-14.28 19.76-27.51 1.32-2.11 3.29-2.77 1.97-0.66 3.28 0.14 1.31 0.8 1.44 2.92 0.12 2.12-1.99 5.29-1.32 2.12-6.58 9.52-5.28 7.41-12.78 17.2-7.51 9.78-16.6 20.75-9.08 10.98-18.43 20.1-9.34 9.18-17.89 15.19-8.55 6.07-15.12 6.06zm143.42-13.43q2.89 0.01 11.44-7.39 8.55-7.4 19.48-18.9 10.93-11.5 22.38-25.38 11.46-13.88 20.16-27.11 1.58-2.11 3.42-2.77 1.84-0.66 3.28 0.14 1.44 0.8 1.57 2.92 0.13 2.12-1.98 5.29-1.32 2.12-6.72 9.39-5.4 7.27-13.17 16.93-7.77 9.65-17.12 20.36-9.35 10.71-18.56 19.69-9.22 8.99-17.63 14.8-8.42 5.81-14.46 5.79-4.73-0.01-9.06-1.74-4.33-1.74-7.6-5.72-3.27-3.98-5.36-10.61-2.08-6.63-2.06-16.17-7.64 9.78-14.48 17.19-6.06 6.34-12.51 11.62-6.44 5.29-10.64 5.28-4.21-0.01-9.06-1.75-4.85-1.73-9.05-5.72-4.19-3.98-6.93-10.21-2.74-6.24-2.72-15.25 0.02-9.01 4.78-19.86 4.75-10.85 12.52-21.83 7.77-10.97 17.52-21.15 9.74-10.18 19.6-18.11 9.87-7.92 18.81-12.67 8.94-4.74 15.24-4.73 6.83 0.02 11.55 2.55 4.72 2.53 7.6 5.45 3.15 3.45 4.97 7.69 16.09-26.19 28.75-48.15 5.53-9.26 10.68-18.65 5.14-9.4 9.23-17.47 4.09-8.07 6.6-14.16 2.51-6.09 2.52-9 0-3.18 3.55-4.23 3.55-1.05 7.62 1.47 4.06 2.53 7.59 9.56 3.52 7.03 3.49 19.75-0.01 5.83-4.89 16.68-4.89 10.85-12.67 24.75-7.78 13.89-17.53 29.76-9.76 15.88-19.52 31.62-9.75 15.74-18.58 30.16-8.83 14.42-14.9 25.53-6.07 11.12-8.32 17.73-2.25 6.62 1.17 6.63zm-65.13 0.64q3.94 0.01 11.83-7.13 7.9-7.13 17.12-17.84 9.22-10.71 18.57-23.27 9.35-12.57 15.94-23.28 6.59-10.72 9.11-17.87 2.51-7.14-1.69-7.15-3.15-0.01-9.86 4.87-6.71 4.89-14.74 12.82-8.03 7.93-16.59 18.11-8.56 10.18-15.67 20.63-7.12 10.45-11.61 20.37-4.49 9.93-4.51 17.61 0 0.53 0.26 1.06 0.53 1.06 1.84 1.07z"/>
				<path id="Object 6" fill-rule="evenodd" class="s0" d="m1094.66 1387.03l-163.62 35.24c64.29 7.53 269.55-3.74 351.41-8.89 41.55-2.61 92.11-0.56 104.22-21.49-50.02-40.62-251.31-10.92-292.01-4.86z"/>
				<path id="Object 7" fill-rule="evenodd" class="s0" d="m1617.36 1313.43q0.01 13.6-8.12 21.78-8.25 8.14-21.93 8.13-14.9 0-24.84-9.36l9.05-9.06q6.63 6.26 15.21 6.26 16.51 0 16.51-18v-9.09q-6.76 8.08-18.19 8.09-24.62-0.01-24.61-35.08-0.01-15.77 4.38-24.02 6.17-10.93 20.36-10.92 11.56 0.01 18.47 8.36v-7.52h13.71zm-14.12-36.38q0-9.9-2.24-14.93-3.09-7.24-12.03-7.25-14.4 0-14.4 22.18 0 22.26 14.4 22.26 8.73 0 12.03-7.24 2.24-4.89 2.24-15.02zm140.65 36.8h-13.85v-6.41q-7.24 7.24-18.67 7.25-11.16 0-17.5-5.13-6.9-5.81-6.9-16.51-0.01-10.45 7.22-15.72 6.23-4.72 16.99-4.71h18.59v-5.05q-0.01-13.25-15.36-13.26-10.35 0.01-15.41 6.83l-9.26-8.81q5.06-5.97 11.36-8.19 5.74-1.99 13.85-1.99 28.94 0 28.94 24.34zm-14.12-25.57v-5.73h-16.51q-12.57-0.01-12.58 10.23 0.01 10.03 12.86 10.03 9 0 13.18-4.03 3.05-2.85 3.05-10.5zm115.84 25.57h-8.75q-8.79 0.01-14.06-5.33-5.15-5.1-5.15-14.25v-79.92h14.13v79.1q0.01 8.25 7.6 8.25h6.23zm95.53 0h-8.75q-8.8 0-14.06-5.34-5.15-5.1-5.15-14.25v-79.92h14.13v79.1q0.01 8.25 7.6 8.25h6.23zm123.92-31.31h-45.55q0 8.95 4.6 14.4 4.6 5.45 13.32 5.45 9.8 0 17.01-7.22l9 8.45q-5.49 5.53-12.02 8.29-6.52 2.77-14.29 2.78-31.61-0.01-31.6-36.32 0-15.68 6.9-25.29 7.79-10.93 22.85-10.92 14.43 0 22.46 9.96 7.31 9.13 7.32 24.16zm-13.99-9.93q-0.21-8.38-3.72-13.13-4.19-5.45-12.02-5.45-15.27 0-15.82 18.58zm134.48-23.73l-10.69 10.69q-4.67-4.71-10.48-4.7-6.57-0.01-10.3 4.56-3.71 4.57-3.71 11.34v43.07h-14.13v-70.85h13.85v7.66q5.96-8.49 18.67-8.5 10.11-0.01 16.79 6.73zm116.99-5.89l-30.98 84.94q-5.26 14.01-19.52 14h-5.68v-12.86h3.57q4.48 0.01 6.49-1.62 2.17-1.58 3.65-5.88l3.85-11.06-24.54-67.52h15.01l16.71 49.91 16.37-49.91z"/>
				<path id="Object 8" fill-rule="evenodd" class="s0" d="m2656.09 1126.26h90.89c8.47 11.78 3.88 14.32-8.5 32.29l-23.91 34.71 44.57-33.09 73.3 204.39z"/>
				<path id="Object 9" fill-rule="evenodd" class="s0" d="m2897.7 1122.34h112.65l-112.65 331.58-108.78-311.6c21.71-14.1 48.93-14.16 80.83-2.21 16.02 5.99 20.96 9.19 33.77 19.87l51.65 43.09z"/>
				<path id="Object 10" fill-rule="evenodd" class="s0" d="m2801.74 1048.61h57.49v57.23h-57.87z"/>
				<path id="Object 11" fill-rule="evenodd" class="s0" d="m2660.74 1097.21h112.26v-41.47c0-27.53-24.24-31.2-44.9-22.56z"/>
				<path id="Object 12" fill-rule="evenodd" class="s0" d="m2901.82 1028.08h157.47l76.14 68.98h-245.5v-43.09c0-8.78 0.1-25.89 11.89-25.89z"/>
				<path id="Object 13" fill-rule="evenodd" class="s0" d="m3046.89 1126.83h89.34l-169.35 236.73z"/>
			</g>
			<path id="Object 17" fill-rule="evenodd" class="s1" d="m2551.76 2141.87h9.07l7.06 11.74 6.99-11.74h9.19l-12.09 20.21v17.79h-8.13v-17.79z"/>
		</g>
		<g id="Group 19">
		</g>
		<g id="Group 21">
		</g>
		<g id="Group 23">
		</g>
	</g>
</svg>